<svg xmlns="http://www.w3.org/2000/svg" viewBox="0 0 640 360" role="img" aria-label="海岸与山脊路线插画">
  <defs>
    <linearGradient id="sky" x1="0" y1="0" x2="0" y2="1"><stop stop-color="#dff1e8"/><stop offset="1" stop-color="#f5e9c9"/></linearGradient>
    <linearGradient id="sea" x1="0" y1="0" x2="1" y2="1"><stop stop-color="#75b5af"/><stop offset="1" stop-color="#326f70"/></linearGradient>
  </defs>
  <rect width="640" height="360" fill="url(#sky)"/>
  <path d="M0 195c89-32 143-19 205 22 68 45 116 52 196 12 75-37 149-49 239-12v143H0z" fill="url(#sea)"/>
  <path d="M0 254 92 118l71 75 62-53 102 139 88-97 97 89 62-50 66 69v70H0z" fill="#315d48"/>
  <path d="M0 297 98 198l81 72 86-64 78 97 84-58 76 43 74-34 63 55v51H0z" fill="#1d4035"/>
  <path d="M55 290c82-14 124-51 177-42 60 10 79 52 141 47 57-4 88-48 170-38" fill="none" stroke="#e9d477" stroke-width="7" stroke-linecap="round" stroke-dasharray="1 18"/>
  <circle cx="112" cy="72" r="25" fill="#e9c76b" opacity=".9"/>
</svg>
